<svg width="50" height="21" viewBox="0 0 50 21" fill="none" xmlns="http://www.w3.org/2000/svg">
<g clip-path="url(#clip0_2009_237)">
<!--
<path d="M0.00585938 0.691406H49.9934V20.6914H0.00585938V0.691406Z" fill="black"/>
-->
<path d="M10.3056 6.81793C10.7867 6.68215 11.2999 6.60973 11.8323 6.60973C14.1628 6.60973 16.1085 8.01102 16.5533 9.87397L19.8567 9.30368C19.0998 6.13902 15.7942 3.75647 11.8323 3.75647C10.9236 3.75647 10.0533 3.88139 9.23657 4.11313L10.3056 6.81793Z" fill="#FFCB05"/>
<path d="M6.40774 15.881L8.64209 13.7429C7.64572 12.9952 7.01711 11.9035 7.01711 10.6869C7.01711 9.47206 7.64572 8.38036 8.64209 7.63445L6.40774 5.49451C4.71433 6.76544 3.64526 8.62115 3.64526 10.6869C3.64526 12.7544 4.71433 14.6101 6.40774 15.881" fill="#00A4E0"/>
<path d="M16.5533 11.5052C16.1064 13.3664 14.1628 14.7659 11.8344 14.7659C11.2999 14.7659 10.7846 14.6934 10.3056 14.5559L9.23657 17.2643C10.0533 17.4942 10.9257 17.6191 11.8344 17.6191C15.7921 17.6191 19.0955 15.2402 19.8567 12.0792L16.5533 11.5052Z" fill="#EF4123"/>
<path d="M22.7453 13.8316C22.6363 13.6831 22.4909 13.4459 22.4011 13.2703C21.8773 12.242 21.8537 11.1775 22.2942 10.1564C22.7795 9.03569 23.7075 8.17935 24.907 7.74122C26.4144 7.19266 28.08 7.29948 29.5254 8.02546C30.4426 8.47083 31.0926 9.1588 31.5865 10.1328C31.6485 10.2577 31.7041 10.3899 31.7597 10.504L22.7453 13.8316ZM25.7558 9.39416C24.6846 9.78341 24.133 10.6343 24.2484 11.6301L28.7813 9.97713C28.0009 9.20226 26.9874 8.94517 25.7558 9.39416V9.39416ZM29.3458 12.9897C29.3436 12.9897 29.3436 12.9915 29.3436 12.9915L29.2495 12.9372C28.978 13.3083 28.5568 13.6107 28.0244 13.8062C27.0109 14.1792 26.0723 14.0832 25.3966 13.5817L25.3346 13.6614C25.3346 13.6614 25.3346 13.6596 25.3325 13.6596L24.1822 15.117C24.4687 15.2854 24.7744 15.4266 25.0951 15.5406C26.3652 15.9878 27.6652 15.9661 28.9459 15.4954C29.8717 15.155 30.5987 14.6372 31.0948 13.98L29.3458 12.9897ZM34.9092 5.59766V13.6976L36.3973 14.2081L35.5528 15.8774L33.9107 15.298C33.5429 15.1622 33.2906 14.9559 33.1025 14.7223C32.9207 14.4851 32.786 14.1574 32.786 13.7193V5.59766H34.9092ZM38.7621 11.6355C38.7621 10.9457 39.1235 10.3265 39.6922 9.90652L38.1656 8.4654C37.1307 9.24027 36.4786 10.3718 36.4786 11.6319C36.4765 12.8938 37.1286 14.0271 38.1613 14.802L39.6858 13.3609C39.1192 12.939 38.7621 12.3235 38.7621 11.6355V11.6355ZM41.4733 13.933C41.1739 13.933 40.8832 13.8895 40.6137 13.8135L39.8846 15.6474C40.3828 15.7887 40.9152 15.8665 41.4711 15.8665C43.8872 15.8683 45.9035 14.4163 46.3717 12.4882L44.131 12.1008C43.8765 13.149 42.784 13.9348 41.4733 13.933V13.933ZM41.4797 7.40448C40.9259 7.40448 40.3935 7.48052 39.8953 7.61993L40.618 9.45572C40.8896 9.37968 41.1782 9.33804 41.4776 9.33804C42.7904 9.33985 43.8851 10.1292 44.1331 11.1793L46.3739 10.7954C45.9142 8.8637 43.8979 7.40629 41.4797 7.40448V7.40448Z" fill="white"/>
</g>
<defs>
<clipPath id="clip0_2009_237">
<rect width="50" height="20" fill="white" transform="translate(0 0.691406)"/>
</clipPath>
</defs>
</svg>
